<svg width="18" height="18" viewBox="0 0 18 18" fill="none" xmlns="http://www.w3.org/2000/svg">
<path fill-rule="evenodd" clip-rule="evenodd" d="M8.16663 14H9.83329V12.3334H8.16663V14ZM8.99996 0.666687C4.39996 0.666687 0.666626 4.40002 0.666626 9.00002C0.666626 13.6 4.39996 17.3334 8.99996 17.3334C13.6 17.3334 17.3333 13.6 17.3333 9.00002C17.3333 4.40002 13.6 0.666687 8.99996 0.666687ZM8.99996 15.6667C5.32496 15.6667 2.33329 12.675 2.33329 9.00002C2.33329 5.32502 5.32496 2.33335 8.99996 2.33335C12.675 2.33335 15.6666 5.32502 15.6666 9.00002C15.6666 12.675 12.675 15.6667 8.99996 15.6667ZM8.99996 4.00002C7.15829 4.00002 5.66663 5.49169 5.66663 7.33335H7.33329C7.33329 6.41669 8.08329 5.66669 8.99996 5.66669C9.91663 5.66669 10.6666 6.41669 10.6666 7.33335C10.6666 9.00002 8.16663 8.79169 8.16663 11.5H9.83329C9.83329 9.62502 12.3333 9.41669 12.3333 7.33335C12.3333 5.49169 10.8416 4.00002 8.99996 4.00002Z" fill="#004CCC"/>
</svg>
