<svg width="17" height="10" viewBox="0 0 17 10" fill="none" xmlns="http://www.w3.org/2000/svg">
<path d="M3.68 0.599999C4.424 0.599999 5.068 0.724 5.612 0.972C6.164 1.22 6.588 1.572 6.884 2.028C7.18 2.484 7.328 3.024 7.328 3.648C7.328 4.264 7.18 4.804 6.884 5.268C6.588 5.724 6.164 6.076 5.612 6.324C5.068 6.564 4.424 6.684 3.68 6.684H1.988V9H0.0440001V0.599999H3.68ZM3.572 5.1C4.156 5.1 4.6 4.976 4.904 4.728C5.208 4.472 5.36 4.112 5.36 3.648C5.36 3.176 5.208 2.816 4.904 2.568C4.6 2.312 4.156 2.184 3.572 2.184H1.988V5.1H3.572ZM16.5069 0.599999L12.9309 7.248C12.5869 7.888 12.1709 8.372 11.6829 8.7C11.2029 9.028 10.6789 9.192 10.1109 9.192C9.67091 9.192 9.21491 9.096 8.74291 8.904L9.21091 7.428C9.54691 7.532 9.82691 7.584 10.0509 7.584C10.2909 7.584 10.5069 7.528 10.6989 7.416C10.8909 7.296 11.0669 7.112 11.2269 6.864L11.2989 6.768L7.98691 0.599999H10.0629L12.2949 5.112L14.5989 0.599999H16.5069Z" fill="#004CCC"/>
</svg>
