<svg width="16" height="18" viewBox="0 0 16 18" fill="none" xmlns="http://www.w3.org/2000/svg">
<path fill-rule="evenodd" clip-rule="evenodd" d="M3.83333 12.5H9.66667V14.1667H3.83333V12.5ZM3.83333 9.16666H12.1667V10.8333H3.83333V9.16666ZM3.83333 5.83333H12.1667V7.49999H3.83333V5.83333ZM13.8333 2.49999H10.35C10 1.53333 9.08333 0.833328 8 0.833328C6.91667 0.833328 6 1.53333 5.65 2.49999H2.16667C2.05 2.49999 1.94167 2.50833 1.83333 2.53333C1.50833 2.59999 1.21667 2.76666 0.991667 2.99166C0.841667 3.14166 0.716667 3.32499 0.633333 3.52499C0.55 3.71666 0.5 3.93333 0.5 4.16666V15.8333C0.5 16.0583 0.55 16.2833 0.633333 16.4833C0.716667 16.6833 0.841667 16.8583 0.991667 17.0167C1.21667 17.2417 1.50833 17.4083 1.83333 17.475C1.94167 17.4917 2.05 17.5 2.16667 17.5H13.8333C14.75 17.5 15.5 16.75 15.5 15.8333V4.16666C15.5 3.24999 14.75 2.49999 13.8333 2.49999ZM8 2.29166C8.34167 2.29166 8.625 2.57499 8.625 2.91666C8.625 3.25833 8.34167 3.54166 8 3.54166C7.65833 3.54166 7.375 3.25833 7.375 2.91666C7.375 2.57499 7.65833 2.29166 8 2.29166ZM13.8333 15.8333H2.16667V4.16666H13.8333V15.8333Z" fill="#004CCC"/>
</svg>
