<svg width="18" height="18" viewBox="0 0 18 18" fill="none" xmlns="http://www.w3.org/2000/svg">
<path fill-rule="evenodd" clip-rule="evenodd" d="M15.1917 9.81669C15.225 9.55002 15.25 9.28335 15.25 9.00002C15.25 8.71669 15.225 8.45002 15.1917 8.18335L16.95 6.80835C17.1083 6.68335 17.15 6.45835 17.05 6.27502L15.3833 3.39169C15.3083 3.25835 15.1667 3.18335 15.0167 3.18335C14.9667 3.18335 14.9167 3.19169 14.875 3.20835L12.8 4.04169C12.3667 3.70835 11.9 3.43335 11.3917 3.22502L11.075 1.01669C11.05 0.816687 10.875 0.666687 10.6667 0.666687H7.33332C7.12499 0.666687 6.94999 0.816687 6.92499 1.01669L6.60832 3.22502C6.09999 3.43335 5.63332 3.71669 5.19999 4.04169L3.12499 3.20835C3.07499 3.19169 3.02499 3.18335 2.97499 3.18335C2.83332 3.18335 2.69165 3.25835 2.61665 3.39169L0.949988 6.27502C0.841655 6.45835 0.891655 6.68335 1.04999 6.80835L2.80832 8.18335C2.77499 8.45002 2.74999 8.72502 2.74999 9.00002C2.74999 9.27502 2.77499 9.55002 2.80832 9.81669L1.04999 11.1917C0.891655 11.3167 0.849988 11.5417 0.949988 11.725L2.61665 14.6084C2.69165 14.7417 2.83332 14.8167 2.98332 14.8167C3.03332 14.8167 3.08332 14.8084 3.12499 14.7917L5.19999 13.9584C5.63332 14.2917 6.09999 14.5667 6.60832 14.775L6.92499 16.9834C6.94999 17.1834 7.12499 17.3334 7.33332 17.3334H10.6667C10.875 17.3334 11.05 17.1834 11.075 16.9834L11.3917 14.775C11.9 14.5667 12.3667 14.2834 12.8 13.9584L14.875 14.7917C14.925 14.8084 14.975 14.8167 15.025 14.8167C15.1667 14.8167 15.3083 14.7417 15.3833 14.6084L17.05 11.725C17.15 11.5417 17.1083 11.3167 16.95 11.1917L15.1917 9.81669ZM13.5417 8.39169C13.575 8.65002 13.5833 8.82502 13.5833 9.00002C13.5833 9.17502 13.5667 9.35835 13.5417 9.60835L13.425 10.55L14.1667 11.1334L15.0667 11.8334L14.4833 12.8417L13.425 12.4167L12.5583 12.0667L11.8083 12.6334C11.45 12.9 11.1083 13.1 10.7667 13.2417L9.88332 13.6L9.74999 14.5417L9.58332 15.6667H8.41665L8.25832 14.5417L8.12499 13.6L7.24165 13.2417C6.88332 13.0917 6.54999 12.9 6.21665 12.65L5.45832 12.0667L4.57499 12.425L3.51665 12.85L2.93332 11.8417L3.83332 11.1417L4.57499 10.5584L4.45832 9.61669C4.43332 9.35835 4.41665 9.16669 4.41665 9.00002C4.41665 8.83335 4.43332 8.64169 4.45832 8.39169L4.57499 7.45002L3.83332 6.86669L2.93332 6.16669L3.51665 5.15835L4.57499 5.58335L5.44165 5.93335L6.19165 5.36669C6.54999 5.10002 6.89165 4.90002 7.23332 4.75835L8.11665 4.40002L8.24999 3.45835L8.41665 2.33335H9.57499L9.73332 3.45835L9.86665 4.40002L10.75 4.75835C11.1083 4.90835 11.4417 5.10002 11.775 5.35002L12.5333 5.93335L13.4167 5.57502L14.475 5.15002L15.0583 6.15835L14.1667 6.86669L13.425 7.45002L13.5417 8.39169ZM8.99999 5.66669C7.15832 5.66669 5.66666 7.15835 5.66666 9.00002C5.66666 10.8417 7.15832 12.3334 8.99999 12.3334C10.8417 12.3334 12.3333 10.8417 12.3333 9.00002C12.3333 7.15835 10.8417 5.66669 8.99999 5.66669ZM8.99999 10.6667C8.08332 10.6667 7.33332 9.91669 7.33332 9.00002C7.33332 8.08335 8.08332 7.33335 8.99999 7.33335C9.91665 7.33335 10.6667 8.08335 10.6667 9.00002C10.6667 9.91669 9.91665 10.6667 8.99999 10.6667Z" fill="#004CCC"/>
</svg>
